<svg width="1543" height="296" viewBox="0 0 1543 296" fill="none" xmlns="http://www.w3.org/2000/svg">
<g clip-path="url(#clip0_11_281)">
<path d="M221.306 107.762C215.893 108.824 208.424 108.234 205.651 102.995C201.923 95.9618 197.912 89.0667 193.618 82.3092C193.409 81.9811 193.092 81.735 192.722 81.613C185.635 79.2294 181.465 72.9518 183.472 66.0842C188.587 48.632 215.534 57.8596 206.44 76.3974C206.359 76.5648 206.321 76.748 206.327 76.931C206.333 77.1139 206.384 77.2913 206.476 77.4476C211.511 86.0616 216.502 94.6559 221.449 103.231C221.927 104.049 222.274 104.973 222.489 106.004C222.529 106.196 222.53 106.394 222.492 106.587C222.454 106.779 222.378 106.963 222.268 107.126C222.158 107.289 222.017 107.43 221.852 107.539C221.686 107.648 221.501 107.724 221.306 107.762ZM202.282 69.282C202.282 67.5514 201.585 65.8916 200.346 64.6678C199.107 63.4441 197.426 62.7566 195.673 62.7566C193.921 62.7566 192.24 63.4441 191 64.6678C189.761 65.8916 189.065 67.5514 189.065 69.282C189.065 71.0126 189.761 72.6724 191 73.8962C192.24 75.1199 193.921 75.8074 195.673 75.8074C197.426 75.8074 199.107 75.1199 200.346 73.8962C201.585 72.6724 202.282 71.0126 202.282 69.282Z" fill="white"/>
<path d="M170.16 68.6924C172.514 68.5862 175.263 69.5538 176.541 71.6306C185.902 86.9392 195.231 102.224 204.528 117.485C204.61 117.619 204.662 117.768 204.679 117.923C204.696 118.078 204.678 118.235 204.627 118.383C204.576 118.531 204.492 118.665 204.382 118.777C204.272 118.889 204.138 118.976 203.99 119.031C194.98 122.347 188.886 119.279 184.44 111.467C179.326 102.46 173.92 93.6337 168.224 84.9882C166.862 82.9232 165.189 82.4394 162.608 82.5338C153.972 82.8328 145.336 83.0648 136.7 83.23C134.74 83.2694 133.358 83.1986 132.553 83.0176C130.498 82.5456 130.008 81.4128 131.083 79.6192C134.298 74.2738 134.537 69.2588 142.555 69.2824C151.749 69.306 160.951 69.1094 170.16 68.6924Z" fill="white"/>
<path d="M218.175 69.0106C223.361 68.7038 230.006 66.9456 233.184 72.4562C238.267 81.2826 243.445 90.0539 248.719 98.7702C249.854 100.635 248.671 103.785 247.452 105.862C238.793 120.502 230.173 135.22 221.593 150.018C221.479 150.212 221.324 150.38 221.138 150.51C220.953 150.64 220.741 150.729 220.517 150.77C220.294 150.812 220.064 150.805 219.843 150.751C219.622 150.696 219.416 150.595 219.239 150.454C212.081 144.755 212.355 137.439 216.992 130.135C223.811 119.389 229.081 110.366 232.802 103.065C234.057 100.587 232.575 98.4988 230.902 95.6904C226.066 87.6192 221.382 79.5126 216.849 71.3706C216.717 71.1344 216.648 70.8689 216.648 70.5992C216.648 70.3294 216.718 70.0641 216.851 69.8283C216.983 69.5924 217.174 69.3936 217.406 69.2506C217.638 69.1076 217.902 69.025 218.175 69.0106Z" fill="white"/>
<path d="M164.663 94.5222C166.352 94.5065 166.953 95.297 166.467 96.894C163.91 105.284 159.106 108.505 150.395 108.069C144.531 107.77 138.7 107.825 132.9 108.234C132.711 108.245 132.527 108.294 132.359 108.377C132.19 108.46 132.041 108.576 131.92 108.718C127.116 114.417 119.516 115.385 113.553 110.924C99.3563 100.316 119.492 77.9786 132.326 94.4278C132.43 94.5631 132.566 94.6722 132.722 94.746C132.877 94.8198 133.049 94.8564 133.223 94.8526L164.663 94.5222ZM128.227 101.236C128.227 99.5026 127.53 97.8398 126.288 96.6139C125.047 95.3879 123.363 94.6992 121.607 94.6992C119.851 94.6992 118.167 95.3879 116.926 96.6139C115.684 97.8398 114.987 99.5026 114.987 101.236C114.987 102.97 115.684 104.633 116.926 105.859C118.167 107.085 119.851 107.774 121.607 107.774C123.363 107.774 125.047 107.085 126.288 105.859C127.53 104.633 128.227 102.97 128.227 101.236Z" fill="white"/>
<path d="M266.441 107.207C277.387 114.877 271.257 129.474 258.471 130.135C258.285 130.142 258.104 130.197 257.945 130.294C257.786 130.392 257.654 130.528 257.562 130.689L241.119 158.832C240.979 159.073 240.781 159.277 240.542 159.427C240.303 159.577 240.029 159.668 239.745 159.694C237.737 159.894 237.403 158.101 236.566 157.074C231.392 150.761 232.682 145.652 237.02 138.961C240.518 133.549 243.752 127.999 246.724 122.311C246.902 121.974 246.965 121.589 246.903 121.214C245.051 109.65 255.949 99.8442 266.441 107.207ZM265.88 117.426C265.88 115.692 265.182 114.03 263.941 112.804C262.699 111.578 261.015 110.889 259.259 110.889C257.503 110.889 255.82 111.578 254.578 112.804C253.336 114.03 252.639 115.692 252.639 117.426C252.639 119.16 253.336 120.823 254.578 122.049C255.82 123.275 257.503 123.963 259.259 123.963C261.015 123.963 262.699 123.275 263.941 122.049C265.182 120.823 265.88 119.16 265.88 117.426Z" fill="white"/>
<path d="M167.925 115.774C168.078 115.775 168.228 115.809 168.365 115.874C168.503 115.938 168.624 116.032 168.721 116.148C168.818 116.263 168.888 116.399 168.926 116.544C168.964 116.69 168.969 116.842 168.941 116.99C167.149 126.713 160.875 129.875 151.387 129.592C139.715 129.246 129.371 129.439 120.352 130.17C119.022 130.273 117.919 131.103 117.042 132.66C112.007 141.628 106.869 150.58 101.627 159.517C100.742 161.035 99.7427 161.11 98.6273 159.741C95.1618 155.505 90.7284 150.407 94.1341 144.637C99.2089 136.023 104.136 127.323 108.916 118.536C109.593 117.301 111.163 116.644 113.625 116.565C131.701 115.936 149.801 115.672 167.925 115.774Z" fill="white"/>
<path d="M216.49 166.479C225.919 167.14 235.371 166.963 244.812 166.573C247.393 166.479 250.356 166.904 251.802 164.308C256.981 155.041 262.287 145.971 267.72 137.097C267.872 136.846 268.086 136.638 268.343 136.492C268.6 136.347 268.89 136.268 269.186 136.265C269.482 136.261 269.774 136.333 270.034 136.472C270.294 136.612 270.513 136.815 270.671 137.062C273.587 141.569 278.296 146.242 274.997 151.823C268.552 162.711 263.569 171.348 260.048 177.736C259.176 179.329 256.188 180.474 254.145 180.462C236.729 180.36 219.259 180.454 201.732 180.745C201.41 180.751 201.092 180.68 200.803 180.54C200.514 180.4 200.263 180.194 200.07 179.94C199.878 179.685 199.749 179.389 199.695 179.075C199.641 178.762 199.664 178.441 199.76 178.137C202.389 169.767 207.966 165.881 216.49 166.479Z" fill="white"/>
<path d="M116.588 191.566C99.6549 200.557 88.7804 171.057 110.051 167.836C110.241 167.81 110.421 167.741 110.579 167.635C110.736 167.528 110.867 167.387 110.96 167.222L127.57 138.076C127.732 137.793 127.959 137.551 128.233 137.37C128.508 137.19 128.821 137.076 129.149 137.038C129.476 137 129.808 137.039 130.117 137.152C130.426 137.265 130.704 137.448 130.928 137.687C135.409 142.49 137.596 149.475 133.593 155.269C129.506 161.204 126.04 167.659 122.671 174.019C122.494 174.352 122.455 174.742 122.563 175.105C124.81 182.767 122.818 188.254 116.588 191.566ZM117.401 180.509C117.401 178.778 116.704 177.119 115.465 175.895C114.226 174.671 112.545 173.984 110.792 173.984C109.04 173.984 107.359 174.671 106.119 175.895C104.88 177.119 104.184 178.778 104.184 180.509C104.184 181.366 104.355 182.215 104.687 183.006C105.019 183.798 105.506 184.517 106.119 185.123C106.733 185.729 107.462 186.21 108.263 186.538C109.065 186.866 109.924 187.035 110.792 187.035C111.66 187.035 112.519 186.866 113.321 186.538C114.123 186.21 114.851 185.729 115.465 185.123C116.079 184.517 116.566 183.798 116.898 183.006C117.23 182.215 117.401 181.366 117.401 180.509Z" fill="white"/>
<path d="M149.678 145.841C157.421 151.87 156.549 159.328 151.733 167.069C145.83 176.556 140.839 185.355 136.76 193.465C135.935 195.117 136.437 196.994 137.453 198.657C142.687 207.177 147.873 215.838 153.012 224.641C153.166 224.905 153.249 225.204 153.254 225.509C153.258 225.815 153.184 226.115 153.037 226.383C152.891 226.651 152.678 226.876 152.418 227.038C152.158 227.2 151.861 227.293 151.554 227.308C144.408 227.674 140.01 229.691 135.66 222.375C130.793 214.163 125.857 205.981 120.854 197.831C119.946 196.345 120.173 194.402 121.535 192.002C130.155 176.82 138.779 161.582 147.407 146.289C147.516 146.099 147.665 145.935 147.843 145.807C148.022 145.679 148.226 145.59 148.442 145.548C148.658 145.505 148.88 145.509 149.093 145.56C149.306 145.61 149.506 145.706 149.678 145.841Z" fill="white"/>
<path d="M236.435 213.714C236.643 213.72 236.848 213.777 237.028 213.88C237.209 213.983 237.361 214.129 237.47 214.305C237.579 214.481 237.642 214.681 237.654 214.887C237.665 215.093 237.624 215.298 237.534 215.484C235.67 219.461 232.993 227.131 227.52 227.072C217.657 226.97 207.799 227.072 197.944 227.379C193.952 227.509 192.244 225.727 190.224 222.305C181.692 207.83 173.076 193.336 164.376 178.822C164.251 178.614 164.175 178.38 164.152 178.139C164.13 177.898 164.162 177.655 164.247 177.428C164.332 177.201 164.466 176.995 164.642 176.826C164.817 176.657 165.029 176.528 165.261 176.45C175.645 172.981 180.545 177.96 185.36 186.728C191.12 197.19 196.147 205.588 200.441 211.921C201.342 213.235 202.903 213.856 205.126 213.785C215.498 213.455 225.935 213.431 236.435 213.714Z" fill="white"/>
<path d="M215.809 188.014C223.17 188.651 230.591 188.497 238 188.273C238.189 188.269 238.375 188.228 238.548 188.151C238.72 188.074 238.875 187.963 239.004 187.825C245.875 180.65 258.781 182.562 261.171 192.498C264.613 206.823 245.804 214.552 237.905 202.174C237.809 202.028 237.679 201.909 237.527 201.826C237.374 201.744 237.204 201.701 237.032 201.702L203.692 201.666C203.369 201.667 203.05 201.592 202.762 201.448C202.474 201.303 202.225 201.094 202.034 200.836C201.844 200.578 201.719 200.279 201.668 199.964C201.618 199.649 201.644 199.326 201.744 199.023C203.656 193.288 208.747 187.4 215.809 188.014ZM255.507 195.861C255.507 194.127 254.81 192.464 253.568 191.238C252.326 190.012 250.643 189.323 248.887 189.323C247.131 189.323 245.447 190.012 244.205 191.238C242.964 192.464 242.266 194.127 242.266 195.861C242.266 197.594 242.964 199.257 244.205 200.483C245.447 201.709 247.131 202.398 248.887 202.398C250.643 202.398 252.326 201.709 253.568 200.483C254.81 199.257 255.507 197.594 255.507 195.861Z" fill="white"/>
<path d="M176.983 214.257C184.201 216.617 188.539 223.19 186.364 230.022C180.772 247.592 154.35 237.444 163.444 219.827C163.521 219.678 163.558 219.513 163.551 219.346C163.545 219.178 163.496 219.015 163.408 218.871L146.977 191.188C146.841 190.962 146.761 190.707 146.745 190.444C146.728 190.181 146.774 189.918 146.88 189.676C146.986 189.433 147.148 189.218 147.354 189.049C147.56 188.879 147.803 188.759 148.064 188.698C157.17 186.633 161.902 188.993 166.097 196.864C169.156 202.614 172.486 208.184 176.087 213.573C176.296 213.893 176.612 214.135 176.983 214.257ZM180.819 226.671C180.819 225.814 180.648 224.965 180.316 224.174C179.984 223.382 179.497 222.662 178.884 222.057C178.27 221.451 177.542 220.97 176.74 220.642C175.938 220.314 175.079 220.145 174.211 220.145C172.458 220.145 170.777 220.833 169.538 222.057C168.299 223.28 167.603 224.94 167.603 226.671C167.603 228.401 168.299 230.061 169.538 231.285C170.777 232.509 172.458 233.196 174.211 233.196C175.079 233.196 175.938 233.027 176.74 232.699C177.542 232.371 178.27 231.891 178.884 231.285C179.497 230.679 179.984 229.96 180.316 229.168C180.648 228.376 180.819 227.528 180.819 226.671Z" fill="white"/>
<path d="M398.406 129.781H374.969C374.656 127.375 374.016 125.203 373.047 123.266C372.078 121.328 370.797 119.672 369.203 118.297C367.609 116.922 365.719 115.875 363.531 115.156C361.375 114.406 358.984 114.031 356.359 114.031C351.703 114.031 347.688 115.172 344.313 117.453C340.969 119.734 338.391 123.031 336.578 127.344C334.797 131.656 333.906 136.875 333.906 143C333.906 149.375 334.813 154.719 336.625 159.031C338.469 163.312 341.047 166.547 344.359 168.734C347.703 170.891 351.656 171.969 356.219 171.969C358.781 171.969 361.109 171.641 363.203 170.984C365.328 170.328 367.188 169.375 368.781 168.125C370.406 166.844 371.734 165.297 372.766 163.484C373.828 161.641 374.563 159.562 374.969 157.25L398.406 157.391C398 161.641 396.766 165.828 394.703 169.953C392.672 174.078 389.875 177.844 386.313 181.25C382.75 184.625 378.406 187.312 373.281 189.312C368.188 191.312 362.344 192.312 355.75 192.312C347.063 192.312 339.281 190.406 332.406 186.594C325.563 182.75 320.156 177.156 316.188 169.812C312.219 162.469 310.234 153.531 310.234 143C310.234 132.437 312.25 123.484 316.281 116.141C320.313 108.797 325.766 103.219 332.641 99.4062C339.516 95.5937 347.219 93.6875 355.75 93.6875C361.563 93.6875 366.938 94.5 371.875 96.125C376.813 97.7187 381.156 100.062 384.906 103.156C388.656 106.219 391.703 109.984 394.047 114.453C396.391 118.922 397.844 124.031 398.406 129.781ZM411.684 191V95H434.887V172.156H474.824V191H411.684ZM508.891 191H483.953L516.344 95H547.234L579.625 191H554.688L532.141 119.187H531.391L508.891 191ZM505.563 153.219H557.688V170.844H505.563V153.219ZM671.664 95V191H651.977L613.773 135.594H613.164V191H589.961V95H609.93L647.711 150.312H648.508V95H671.664ZM773.395 129.781H749.957C749.645 127.375 749.004 125.203 748.035 123.266C747.066 121.328 745.785 119.672 744.191 118.297C742.598 116.922 740.707 115.875 738.52 115.156C736.363 114.406 733.973 114.031 731.348 114.031C726.691 114.031 722.676 115.172 719.301 117.453C715.957 119.734 713.379 123.031 711.566 127.344C709.785 131.656 708.895 136.875 708.895 143C708.895 149.375 709.801 154.719 711.613 159.031C713.457 163.312 716.035 166.547 719.348 168.734C722.691 170.891 726.645 171.969 731.207 171.969C733.77 171.969 736.098 171.641 738.191 170.984C740.316 170.328 742.176 169.375 743.77 168.125C745.395 166.844 746.723 165.297 747.754 163.484C748.816 161.641 749.551 159.562 749.957 157.25L773.395 157.391C772.988 161.641 771.754 165.828 769.691 169.953C767.66 174.078 764.863 177.844 761.301 181.25C757.738 184.625 753.395 187.312 748.27 189.312C743.176 191.312 737.332 192.312 730.738 192.312C722.051 192.312 714.27 190.406 707.395 186.594C700.551 182.75 695.145 177.156 691.176 169.812C687.207 162.469 685.223 153.531 685.223 143C685.223 132.437 687.238 123.484 691.27 116.141C695.301 108.797 700.754 103.219 707.629 99.4062C714.504 95.5937 722.207 93.6875 730.738 93.6875C736.551 93.6875 741.926 94.5 746.863 96.125C751.801 97.7187 756.145 100.062 759.895 103.156C763.645 106.219 766.691 109.984 769.035 114.453C771.379 118.922 772.832 124.031 773.395 129.781ZM877.281 143C877.281 153.562 875.25 162.516 871.188 169.859C867.125 177.203 861.625 182.781 854.688 186.594C847.781 190.406 840.031 192.312 831.438 192.312C822.813 192.312 815.047 190.391 808.141 186.547C801.234 182.703 795.75 177.125 791.688 169.812C787.656 162.469 785.641 153.531 785.641 143C785.641 132.437 787.656 123.484 791.688 116.141C795.75 108.797 801.234 103.219 808.141 99.4062C815.047 95.5937 822.813 93.6875 831.438 93.6875C840.031 93.6875 847.781 95.5937 854.688 99.4062C861.625 103.219 867.125 108.797 871.188 116.141C875.25 123.484 877.281 132.437 877.281 143ZM853.563 143C853.563 136.75 852.672 131.469 850.891 127.156C849.141 122.844 846.609 119.578 843.297 117.359C840.016 115.141 836.063 114.031 831.438 114.031C826.844 114.031 822.891 115.141 819.578 117.359C816.266 119.578 813.719 122.844 811.938 127.156C810.188 131.469 809.312 136.75 809.312 143C809.312 149.25 810.188 154.531 811.938 158.844C813.719 163.156 816.266 166.422 819.578 168.641C822.891 170.859 826.844 171.969 831.438 171.969C836.063 171.969 840.016 170.859 843.297 168.641C846.609 166.422 849.141 163.156 850.891 158.844C852.672 154.531 853.563 149.25 853.563 143ZM926.313 191H890.828V95H926.266C936.047 95 944.469 96.9219 951.531 100.766C958.625 104.578 964.094 110.078 967.938 117.266C971.781 124.422 973.703 132.984 973.703 142.953C973.703 152.953 971.781 161.547 967.938 168.734C964.125 175.922 958.672 181.437 951.578 185.281C944.484 189.094 936.063 191 926.313 191ZM914.031 171.219H925.422C930.797 171.219 935.344 170.313 939.063 168.5C942.813 166.656 945.641 163.672 947.547 159.547C949.484 155.391 950.453 149.859 950.453 142.953C950.453 136.047 949.484 130.547 947.547 126.453C945.609 122.328 942.75 119.359 938.969 117.547C935.219 115.703 930.594 114.781 925.094 114.781H914.031V171.219ZM987.25 191V95H1054.19V113.844H1010.45V133.531H1050.77V152.422H1010.45V172.156H1054.19V191H987.25ZM1097.08 191V95H1120.28V172.156H1160.22V191H1097.08ZM1194.29 191H1169.35L1201.74 95H1232.63L1265.02 191H1240.08L1217.54 119.187H1216.79L1194.29 191ZM1190.96 153.219H1243.08V170.844H1190.96V153.219ZM1275.36 191V95H1315.39C1322.57 95 1328.59 96.0156 1333.43 98.0469C1338.31 100.078 1341.96 102.922 1344.4 106.578C1346.87 110.234 1348.11 114.469 1348.11 119.281C1348.11 122.938 1347.34 126.203 1345.81 129.078C1344.28 131.922 1342.17 134.281 1339.48 136.156C1336.79 138.031 1333.68 139.344 1330.15 140.094V141.031C1334.03 141.219 1337.61 142.266 1340.89 144.172C1344.2 146.078 1346.86 148.734 1348.86 152.141C1350.86 155.516 1351.86 159.516 1351.86 164.141C1351.86 169.297 1350.54 173.906 1347.92 177.969C1345.29 182 1341.5 185.187 1336.53 187.531C1331.56 189.844 1325.53 191 1318.43 191H1275.36ZM1298.56 172.297H1312.9C1317.93 172.297 1321.64 171.344 1324.01 169.437C1326.42 167.531 1327.62 164.875 1327.62 161.469C1327.62 159 1327.04 156.875 1325.89 155.094C1324.73 153.281 1323.09 151.891 1320.96 150.922C1318.84 149.922 1316.29 149.422 1313.32 149.422H1298.56V172.297ZM1298.56 134.469H1311.4C1313.93 134.469 1316.18 134.047 1318.15 133.203C1320.12 132.359 1321.65 131.141 1322.75 129.547C1323.87 127.953 1324.43 126.031 1324.43 123.781C1324.43 120.562 1323.29 118.031 1321.01 116.187C1318.73 114.344 1315.65 113.422 1311.78 113.422H1298.56V134.469ZM1414.9 123.781C1414.59 120.344 1413.2 117.672 1410.73 115.766C1408.29 113.828 1404.81 112.859 1400.28 112.859C1397.28 112.859 1394.78 113.25 1392.78 114.031C1390.78 114.812 1389.28 115.891 1388.28 117.266C1387.28 118.609 1386.76 120.156 1386.73 121.906C1386.67 123.344 1386.95 124.609 1387.57 125.703C1388.23 126.797 1389.17 127.766 1390.39 128.609C1391.64 129.422 1393.14 130.141 1394.89 130.766C1396.64 131.391 1398.61 131.937 1400.79 132.406L1409.04 134.281C1413.79 135.312 1417.98 136.688 1421.61 138.406C1425.26 140.125 1428.32 142.172 1430.79 144.547C1433.29 146.922 1435.18 149.656 1436.46 152.75C1437.75 155.844 1438.4 159.312 1438.43 163.156C1438.4 169.219 1436.87 174.422 1433.84 178.766C1430.81 183.109 1426.45 186.438 1420.76 188.75C1415.11 191.063 1408.28 192.219 1400.28 192.219C1392.25 192.219 1385.25 191.016 1379.28 188.609C1373.31 186.203 1368.67 182.547 1365.36 177.641C1362.04 172.734 1360.34 166.531 1360.25 159.031H1382.46C1382.65 162.125 1383.48 164.703 1384.95 166.766C1386.42 168.828 1388.43 170.391 1391 171.453C1393.59 172.516 1396.59 173.047 1400 173.047C1403.12 173.047 1405.78 172.625 1407.96 171.781C1410.18 170.938 1411.89 169.766 1413.07 168.266C1414.26 166.766 1414.87 165.047 1414.9 163.109C1414.87 161.297 1414.31 159.75 1413.21 158.469C1412.12 157.156 1410.43 156.031 1408.15 155.094C1405.9 154.125 1403.03 153.234 1399.53 152.422L1389.5 150.078C1381.18 148.172 1374.64 145.094 1369.86 140.844C1365.07 136.562 1362.7 130.781 1362.73 123.5C1362.7 117.562 1364.29 112.359 1367.51 107.891C1370.73 103.422 1375.18 99.9375 1380.87 97.4375C1386.56 94.9375 1393.04 93.6875 1400.32 93.6875C1407.76 93.6875 1414.21 94.9531 1419.68 97.4844C1425.18 99.9844 1429.45 103.5 1432.48 108.031C1435.51 112.562 1437.06 117.812 1437.12 123.781H1414.9Z" fill="white"/>
</g>
<defs>
<clipPath id="clip0_11_281">
<rect width="1543" height="296" fill="white"/>
</clipPath>
</defs>
</svg>
