<svg width="1543" height="296" viewBox="0 0 1543 296" fill="none" xmlns="http://www.w3.org/2000/svg">
<g clip-path="url(#clip0_4_90)">
<rect width="1543" height="296" fill="white"/>
<path d="M221.306 107.762C215.893 108.824 208.424 108.234 205.651 102.995C201.923 95.962 197.912 89.0669 193.618 82.3094C193.409 81.9813 193.092 81.7353 192.722 81.6132C185.635 79.2296 181.465 72.952 183.472 66.0844C188.587 48.6322 215.534 57.8598 206.44 76.3976C206.359 76.5651 206.321 76.7482 206.327 76.9312C206.333 77.1142 206.384 77.2915 206.476 77.4478C211.511 86.0618 216.502 94.6562 221.449 103.231C221.927 104.049 222.274 104.973 222.489 106.004C222.529 106.196 222.53 106.394 222.492 106.587C222.454 106.779 222.378 106.963 222.268 107.126C222.158 107.29 222.017 107.43 221.852 107.539C221.686 107.648 221.501 107.724 221.306 107.762ZM202.282 69.2822C202.282 67.5516 201.585 65.8918 200.346 64.6681C199.107 63.4443 197.426 62.7568 195.673 62.7568C193.921 62.7568 192.24 63.4443 191 64.6681C189.761 65.8918 189.065 67.5516 189.065 69.2822C189.065 71.0129 189.761 72.6727 191 73.8964C192.24 75.1202 193.921 75.8076 195.673 75.8076C197.426 75.8076 199.107 75.1202 200.346 73.8964C201.585 72.6727 202.282 71.0129 202.282 69.2822Z" fill="black"/>
<path d="M170.16 68.6922C172.514 68.586 175.263 69.5536 176.541 71.6304C185.902 86.9389 195.231 102.224 204.528 117.485C204.61 117.618 204.662 117.768 204.679 117.923C204.696 118.078 204.678 118.235 204.627 118.383C204.576 118.53 204.492 118.665 204.382 118.777C204.272 118.889 204.138 118.976 203.99 119.031C194.98 122.347 188.886 119.279 184.44 111.467C179.326 102.46 173.92 93.6335 168.224 84.988C166.862 82.923 165.189 82.4392 162.608 82.5336C153.972 82.8325 145.336 83.0646 136.7 83.2298C134.74 83.2691 133.358 83.1983 132.553 83.0174C130.498 82.5454 130.008 81.4126 131.083 79.619C134.298 74.2736 134.537 69.2586 142.555 69.2822C151.749 69.3058 160.951 69.1091 170.16 68.6922Z" fill="black"/>
<path d="M218.175 69.0108C223.361 68.704 230.006 66.9458 233.184 72.4564C238.267 81.2828 243.445 90.0542 248.719 98.7704C249.855 100.635 248.672 103.785 247.453 105.862C238.793 120.502 230.173 135.221 221.593 150.018C221.479 150.212 221.324 150.381 221.139 150.511C220.953 150.64 220.741 150.729 220.517 150.771C220.294 150.812 220.064 150.805 219.843 150.751C219.622 150.696 219.416 150.595 219.239 150.454C212.081 144.755 212.355 137.439 216.992 130.135C223.812 119.389 229.081 110.366 232.802 103.066C234.057 100.588 232.575 98.499 230.902 95.6906C226.066 87.6194 221.382 79.5128 216.849 71.3708C216.717 71.1346 216.648 70.8692 216.648 70.5994C216.648 70.3296 216.718 70.0644 216.851 69.8285C216.983 69.5926 217.174 69.3939 217.406 69.2509C217.638 69.1078 217.902 69.0253 218.175 69.0108Z" fill="black"/>
<path d="M164.663 94.5224C166.352 94.5067 166.953 95.2973 166.467 96.8942C163.91 105.284 159.106 108.505 150.395 108.069C144.531 107.77 138.7 107.825 132.9 108.234C132.711 108.245 132.527 108.294 132.359 108.377C132.19 108.46 132.041 108.576 131.92 108.718C127.116 114.417 119.516 115.385 113.553 110.924C99.3563 100.316 119.492 77.9788 132.326 94.428C132.43 94.5634 132.566 94.6724 132.722 94.7462C132.877 94.8201 133.049 94.8566 133.223 94.8528L164.663 94.5224ZM128.227 101.237C128.227 99.5029 127.53 97.8401 126.288 96.6141C125.047 95.3882 123.363 94.6994 121.607 94.6994C119.851 94.6994 118.167 95.3882 116.926 96.6141C115.684 97.8401 114.987 99.5029 114.987 101.237C114.987 102.97 115.684 104.633 116.926 105.859C118.167 107.085 119.851 107.774 121.607 107.774C123.363 107.774 125.047 107.085 126.288 105.859C127.53 104.633 128.227 102.97 128.227 101.237Z" fill="black"/>
<path d="M266.441 107.207C277.387 114.877 271.257 129.474 258.47 130.135C258.285 130.142 258.103 130.197 257.944 130.294C257.785 130.392 257.654 130.528 257.562 130.689L241.119 158.832C240.979 159.073 240.781 159.277 240.542 159.427C240.303 159.577 240.029 159.668 239.745 159.694C237.737 159.894 237.403 158.101 236.566 157.074C231.392 150.761 232.682 145.652 237.02 138.961C240.518 133.549 243.752 127.999 246.724 122.311C246.902 121.974 246.965 121.589 246.903 121.214C245.051 109.65 255.949 99.8442 266.441 107.207ZM265.879 117.426C265.879 115.692 265.182 114.03 263.94 112.804C262.699 111.578 261.015 110.889 259.259 110.889C257.503 110.889 255.819 111.578 254.578 112.804C253.336 114.03 252.639 115.692 252.639 117.426C252.639 119.16 253.336 120.823 254.578 122.049C255.819 123.275 257.503 123.963 259.259 123.963C261.015 123.963 262.699 123.275 263.94 122.049C265.182 120.823 265.879 119.16 265.879 117.426Z" fill="black"/>
<path d="M167.925 115.774C168.078 115.775 168.228 115.809 168.365 115.873C168.503 115.938 168.624 116.031 168.721 116.147C168.818 116.263 168.888 116.399 168.926 116.544C168.964 116.69 168.969 116.842 168.941 116.99C167.149 126.713 160.875 129.875 151.387 129.592C139.715 129.246 129.371 129.439 120.352 130.17C119.022 130.272 117.919 131.102 117.042 132.66C112.007 141.628 106.869 150.58 101.627 159.517C100.742 161.035 99.7427 161.11 98.6273 159.741C95.1618 155.505 90.7284 150.407 94.1341 144.637C99.2089 136.023 104.136 127.322 108.916 118.535C109.593 117.3 111.163 116.643 113.625 116.565C131.701 115.935 149.801 115.672 167.925 115.774Z" fill="black"/>
<path d="M216.49 166.479C225.919 167.14 235.371 166.963 244.812 166.573C247.393 166.479 250.356 166.904 251.802 164.308C256.981 155.041 262.287 145.97 267.72 137.097C267.872 136.846 268.086 136.638 268.343 136.492C268.6 136.346 268.89 136.268 269.186 136.265C269.482 136.261 269.774 136.332 270.034 136.472C270.294 136.611 270.513 136.814 270.671 137.061C273.587 141.569 278.296 146.242 274.997 151.823C268.552 162.711 263.569 171.348 260.048 177.736C259.176 179.329 256.188 180.474 254.145 180.462C236.729 180.36 219.259 180.454 201.732 180.745C201.41 180.75 201.092 180.68 200.803 180.54C200.514 180.4 200.263 180.194 200.07 179.939C199.878 179.685 199.749 179.389 199.695 179.075C199.641 178.762 199.664 178.44 199.76 178.137C202.389 169.767 207.966 165.881 216.49 166.479Z" fill="black"/>
<path d="M116.588 191.565C99.6549 200.557 88.7804 171.057 110.051 167.836C110.241 167.81 110.421 167.741 110.579 167.635C110.736 167.528 110.867 167.387 110.96 167.222L127.57 138.076C127.732 137.792 127.959 137.55 128.233 137.37C128.508 137.19 128.821 137.076 129.149 137.038C129.476 137 129.808 137.039 130.117 137.152C130.426 137.264 130.704 137.448 130.928 137.687C135.409 142.489 137.596 149.475 133.593 155.269C129.506 161.204 126.04 167.659 122.671 174.019C122.494 174.352 122.455 174.741 122.563 175.104C124.81 182.767 122.818 188.254 116.588 191.565ZM117.401 180.509C117.401 178.778 116.704 177.118 115.465 175.895C114.226 174.671 112.545 173.983 110.792 173.983C109.04 173.983 107.359 174.671 106.119 175.895C104.88 177.118 104.184 178.778 104.184 180.509C104.184 181.366 104.355 182.214 104.687 183.006C105.019 183.798 105.506 184.517 106.119 185.123C106.733 185.729 107.462 186.21 108.263 186.538C109.065 186.865 109.924 187.034 110.792 187.034C111.66 187.034 112.519 186.865 113.321 186.538C114.123 186.21 114.851 185.729 115.465 185.123C116.079 184.517 116.566 183.798 116.898 183.006C117.23 182.214 117.401 181.366 117.401 180.509Z" fill="black"/>
<path d="M149.678 145.841C157.421 151.87 156.549 159.328 151.733 167.069C145.83 176.556 140.839 185.355 136.76 193.465C135.935 195.117 136.437 196.994 137.453 198.657C142.687 207.177 147.873 215.838 153.012 224.641C153.166 224.905 153.249 225.204 153.254 225.509C153.258 225.815 153.184 226.115 153.037 226.383C152.891 226.651 152.678 226.876 152.418 227.038C152.158 227.2 151.861 227.293 151.554 227.308C144.408 227.674 140.01 229.691 135.66 222.375C130.793 214.163 125.857 205.981 120.854 197.831C119.946 196.345 120.173 194.402 121.535 192.002C130.155 176.82 138.779 161.582 147.407 146.289C147.516 146.099 147.665 145.935 147.843 145.807C148.022 145.679 148.226 145.59 148.442 145.548C148.658 145.505 148.88 145.509 149.093 145.56C149.306 145.61 149.506 145.706 149.678 145.841Z" fill="black"/>
<path d="M236.435 213.714C236.643 213.72 236.848 213.777 237.028 213.88C237.209 213.983 237.361 214.129 237.47 214.305C237.579 214.481 237.642 214.681 237.654 214.887C237.665 215.092 237.624 215.298 237.534 215.484C235.67 219.461 232.993 227.131 227.52 227.072C217.657 226.969 207.799 227.072 197.944 227.379C193.952 227.508 192.244 225.727 190.224 222.305C181.692 207.83 173.076 193.336 164.376 178.822C164.251 178.613 164.175 178.38 164.152 178.139C164.13 177.898 164.162 177.655 164.247 177.428C164.332 177.201 164.466 176.995 164.642 176.826C164.817 176.657 165.029 176.528 165.261 176.45C175.645 172.981 180.545 177.96 185.36 186.728C191.12 197.19 196.147 205.588 200.441 211.921C201.342 213.234 202.903 213.856 205.126 213.785C215.498 213.455 225.935 213.431 236.435 213.714Z" fill="black"/>
<path d="M215.809 188.014C223.17 188.651 230.591 188.498 238 188.273C238.189 188.27 238.375 188.228 238.548 188.151C238.72 188.074 238.875 187.963 239.004 187.825C245.875 180.651 258.781 182.562 261.171 192.498C264.613 206.823 245.803 214.552 237.905 202.174C237.809 202.029 237.679 201.909 237.527 201.827C237.374 201.744 237.204 201.701 237.032 201.702L203.692 201.666C203.369 201.667 203.05 201.592 202.762 201.448C202.474 201.304 202.224 201.094 202.034 200.836C201.844 200.578 201.719 200.279 201.668 199.964C201.618 199.649 201.644 199.327 201.744 199.023C203.656 193.288 208.747 187.4 215.809 188.014ZM255.507 195.861C255.507 194.127 254.809 192.464 253.568 191.238C252.326 190.012 250.642 189.324 248.887 189.324C247.131 189.324 245.447 190.012 244.205 191.238C242.964 192.464 242.266 194.127 242.266 195.861C242.266 197.595 242.964 199.257 244.205 200.483C245.447 201.709 247.131 202.398 248.887 202.398C250.642 202.398 252.326 201.709 253.568 200.483C254.809 199.257 255.507 197.595 255.507 195.861Z" fill="black"/>
<path d="M176.983 214.257C184.201 216.617 188.539 223.19 186.364 230.022C180.772 247.592 154.35 237.444 163.444 219.827C163.521 219.678 163.558 219.513 163.551 219.346C163.545 219.178 163.496 219.015 163.408 218.871L146.977 191.188C146.841 190.962 146.761 190.707 146.745 190.444C146.728 190.181 146.774 189.918 146.88 189.676C146.986 189.433 147.148 189.218 147.354 189.049C147.56 188.879 147.803 188.759 148.064 188.698C157.17 186.633 161.902 188.993 166.097 196.864C169.156 202.614 172.486 208.184 176.087 213.573C176.296 213.893 176.612 214.135 176.983 214.257ZM180.819 226.671C180.819 225.814 180.648 224.965 180.316 224.174C179.984 223.382 179.497 222.662 178.884 222.057C178.27 221.451 177.542 220.97 176.74 220.642C175.938 220.314 175.079 220.145 174.211 220.145C172.458 220.145 170.777 220.833 169.538 222.057C168.299 223.28 167.603 224.94 167.603 226.671C167.603 228.401 168.299 230.061 169.538 231.285C170.777 232.509 172.458 233.196 174.211 233.196C175.079 233.196 175.938 233.027 176.74 232.699C177.542 232.371 178.27 231.891 178.884 231.285C179.497 230.679 179.984 229.96 180.316 229.168C180.648 228.376 180.819 227.528 180.819 226.671Z" fill="black"/>
<path d="M398.406 132.781H374.969C374.656 130.375 374.016 128.203 373.047 126.266C372.078 124.328 370.797 122.672 369.203 121.297C367.609 119.922 365.719 118.875 363.531 118.156C361.375 117.406 358.984 117.031 356.359 117.031C351.703 117.031 347.688 118.172 344.313 120.453C340.969 122.734 338.391 126.031 336.578 130.344C334.797 134.656 333.906 139.875 333.906 146C333.906 152.375 334.813 157.719 336.625 162.031C338.469 166.312 341.047 169.547 344.359 171.734C347.703 173.891 351.656 174.969 356.219 174.969C358.781 174.969 361.109 174.641 363.203 173.984C365.328 173.328 367.188 172.375 368.781 171.125C370.406 169.844 371.734 168.297 372.766 166.484C373.828 164.641 374.563 162.562 374.969 160.25L398.406 160.391C398 164.641 396.766 168.828 394.703 172.953C392.672 177.078 389.875 180.844 386.313 184.25C382.75 187.625 378.406 190.312 373.281 192.312C368.188 194.312 362.344 195.312 355.75 195.312C347.063 195.312 339.281 193.406 332.406 189.594C325.563 185.75 320.156 180.156 316.188 172.812C312.219 165.469 310.234 156.531 310.234 146C310.234 135.437 312.25 126.484 316.281 119.141C320.313 111.797 325.766 106.219 332.641 102.406C339.516 98.5937 347.219 96.6875 355.75 96.6875C361.563 96.6875 366.938 97.5 371.875 99.125C376.813 100.719 381.156 103.062 384.906 106.156C388.656 109.219 391.703 112.984 394.047 117.453C396.391 121.922 397.844 127.031 398.406 132.781ZM411.684 194V98H434.887V175.156H474.824V194H411.684ZM508.891 194H483.953L516.344 98H547.234L579.625 194H554.688L532.141 122.187H531.391L508.891 194ZM505.563 156.219H557.688V173.844H505.563V156.219ZM671.664 98V194H651.977L613.773 138.594H613.164V194H589.961V98H609.93L647.711 153.312H648.508V98H671.664ZM773.395 132.781H749.957C749.645 130.375 749.004 128.203 748.035 126.266C747.066 124.328 745.785 122.672 744.191 121.297C742.598 119.922 740.707 118.875 738.52 118.156C736.363 117.406 733.973 117.031 731.348 117.031C726.691 117.031 722.676 118.172 719.301 120.453C715.957 122.734 713.379 126.031 711.566 130.344C709.785 134.656 708.895 139.875 708.895 146C708.895 152.375 709.801 157.719 711.613 162.031C713.457 166.312 716.035 169.547 719.348 171.734C722.691 173.891 726.645 174.969 731.207 174.969C733.77 174.969 736.098 174.641 738.191 173.984C740.316 173.328 742.176 172.375 743.77 171.125C745.395 169.844 746.723 168.297 747.754 166.484C748.816 164.641 749.551 162.562 749.957 160.25L773.395 160.391C772.988 164.641 771.754 168.828 769.691 172.953C767.66 177.078 764.863 180.844 761.301 184.25C757.738 187.625 753.395 190.312 748.27 192.312C743.176 194.312 737.332 195.312 730.738 195.312C722.051 195.312 714.27 193.406 707.395 189.594C700.551 185.75 695.145 180.156 691.176 172.812C687.207 165.469 685.223 156.531 685.223 146C685.223 135.437 687.238 126.484 691.27 119.141C695.301 111.797 700.754 106.219 707.629 102.406C714.504 98.5937 722.207 96.6875 730.738 96.6875C736.551 96.6875 741.926 97.5 746.863 99.125C751.801 100.719 756.145 103.062 759.895 106.156C763.645 109.219 766.691 112.984 769.035 117.453C771.379 121.922 772.832 127.031 773.395 132.781ZM877.281 146C877.281 156.562 875.25 165.516 871.188 172.859C867.125 180.203 861.625 185.781 854.688 189.594C847.781 193.406 840.031 195.312 831.438 195.312C822.813 195.312 815.047 193.391 808.141 189.547C801.234 185.703 795.75 180.125 791.688 172.812C787.656 165.469 785.641 156.531 785.641 146C785.641 135.437 787.656 126.484 791.688 119.141C795.75 111.797 801.234 106.219 808.141 102.406C815.047 98.5937 822.813 96.6875 831.438 96.6875C840.031 96.6875 847.781 98.5937 854.688 102.406C861.625 106.219 867.125 111.797 871.188 119.141C875.25 126.484 877.281 135.437 877.281 146ZM853.563 146C853.563 139.75 852.672 134.469 850.891 130.156C849.141 125.844 846.609 122.578 843.297 120.359C840.016 118.141 836.063 117.031 831.438 117.031C826.844 117.031 822.891 118.141 819.578 120.359C816.266 122.578 813.719 125.844 811.938 130.156C810.188 134.469 809.312 139.75 809.312 146C809.312 152.25 810.188 157.531 811.938 161.844C813.719 166.156 816.266 169.422 819.578 171.641C822.891 173.859 826.844 174.969 831.438 174.969C836.063 174.969 840.016 173.859 843.297 171.641C846.609 169.422 849.141 166.156 850.891 161.844C852.672 157.531 853.563 152.25 853.563 146ZM926.313 194H890.828V98H926.266C936.047 98 944.469 99.9219 951.531 103.766C958.625 107.578 964.094 113.078 967.938 120.266C971.781 127.422 973.703 135.984 973.703 145.953C973.703 155.953 971.781 164.547 967.938 171.734C964.125 178.922 958.672 184.437 951.578 188.281C944.484 192.094 936.063 194 926.313 194ZM914.031 174.219H925.422C930.797 174.219 935.344 173.313 939.063 171.5C942.813 169.656 945.641 166.672 947.547 162.547C949.484 158.391 950.453 152.859 950.453 145.953C950.453 139.047 949.484 133.547 947.547 129.453C945.609 125.328 942.75 122.359 938.969 120.547C935.219 118.703 930.594 117.781 925.094 117.781H914.031V174.219ZM987.25 194V98H1054.19V116.844H1010.45V136.531H1050.77V155.422H1010.45V175.156H1054.19V194H987.25ZM1097.08 194V98H1120.28V175.156H1160.22V194H1097.08ZM1194.29 194H1169.35L1201.74 98H1232.63L1265.02 194H1240.08L1217.54 122.187H1216.79L1194.29 194ZM1190.96 156.219H1243.08V173.844H1190.96V156.219ZM1275.36 194V98H1315.39C1322.57 98 1328.59 99.0156 1333.43 101.047C1338.31 103.078 1341.96 105.922 1344.4 109.578C1346.87 113.234 1348.11 117.469 1348.11 122.281C1348.11 125.938 1347.34 129.203 1345.81 132.078C1344.28 134.922 1342.17 137.281 1339.48 139.156C1336.79 141.031 1333.68 142.344 1330.15 143.094V144.031C1334.03 144.219 1337.61 145.266 1340.89 147.172C1344.2 149.078 1346.86 151.734 1348.86 155.141C1350.86 158.516 1351.86 162.516 1351.86 167.141C1351.86 172.297 1350.54 176.906 1347.92 180.969C1345.29 185 1341.5 188.187 1336.53 190.531C1331.56 192.844 1325.53 194 1318.43 194H1275.36ZM1298.56 175.297H1312.9C1317.93 175.297 1321.64 174.344 1324.01 172.437C1326.42 170.531 1327.62 167.875 1327.62 164.469C1327.62 162 1327.04 159.875 1325.89 158.094C1324.73 156.281 1323.09 154.891 1320.96 153.922C1318.84 152.922 1316.29 152.422 1313.32 152.422H1298.56V175.297ZM1298.56 137.469H1311.4C1313.93 137.469 1316.18 137.047 1318.15 136.203C1320.12 135.359 1321.65 134.141 1322.75 132.547C1323.87 130.953 1324.43 129.031 1324.43 126.781C1324.43 123.562 1323.29 121.031 1321.01 119.187C1318.73 117.344 1315.65 116.422 1311.78 116.422H1298.56V137.469ZM1414.9 126.781C1414.59 123.344 1413.2 120.672 1410.73 118.766C1408.29 116.828 1404.81 115.859 1400.28 115.859C1397.28 115.859 1394.78 116.25 1392.78 117.031C1390.78 117.812 1389.28 118.891 1388.28 120.266C1387.28 121.609 1386.76 123.156 1386.73 124.906C1386.67 126.344 1386.95 127.609 1387.57 128.703C1388.23 129.797 1389.17 130.766 1390.39 131.609C1391.64 132.422 1393.14 133.141 1394.89 133.766C1396.64 134.391 1398.61 134.937 1400.79 135.406L1409.04 137.281C1413.79 138.312 1417.98 139.688 1421.61 141.406C1425.26 143.125 1428.32 145.172 1430.79 147.547C1433.29 149.922 1435.18 152.656 1436.46 155.75C1437.75 158.844 1438.4 162.312 1438.43 166.156C1438.4 172.219 1436.87 177.422 1433.84 181.766C1430.81 186.109 1426.45 189.438 1420.76 191.75C1415.11 194.063 1408.28 195.219 1400.28 195.219C1392.25 195.219 1385.25 194.016 1379.28 191.609C1373.31 189.203 1368.67 185.547 1365.36 180.641C1362.04 175.734 1360.34 169.531 1360.25 162.031H1382.46C1382.65 165.125 1383.48 167.703 1384.95 169.766C1386.42 171.828 1388.43 173.391 1391 174.453C1393.59 175.516 1396.59 176.047 1400 176.047C1403.12 176.047 1405.78 175.625 1407.96 174.781C1410.18 173.938 1411.89 172.766 1413.07 171.266C1414.26 169.766 1414.87 168.047 1414.9 166.109C1414.87 164.297 1414.31 162.75 1413.21 161.469C1412.12 160.156 1410.43 159.031 1408.15 158.094C1405.9 157.125 1403.03 156.234 1399.53 155.422L1389.5 153.078C1381.18 151.172 1374.64 148.094 1369.86 143.844C1365.07 139.562 1362.7 133.781 1362.73 126.5C1362.7 120.562 1364.29 115.359 1367.51 110.891C1370.73 106.422 1375.18 102.937 1380.87 100.438C1386.56 97.9375 1393.04 96.6875 1400.32 96.6875C1407.76 96.6875 1414.21 97.9531 1419.68 100.484C1425.18 102.984 1429.45 106.5 1432.48 111.031C1435.51 115.562 1437.06 120.812 1437.12 126.781H1414.9Z" fill="black"/>
</g>
<defs>
<clipPath id="clip0_4_90">
<rect width="1543" height="296" fill="white"/>
</clipPath>
</defs>
</svg>
